G04*
G04 #@! TF.GenerationSoftware,Altium Limited,Altium Designer,21.3.2 (30)*
G04*
G04 Layer_Color=65535*
%FSLAX25Y25*%
%MOIN*%
G70*
G04*
G04 #@! TF.SameCoordinates,64965459-EBE9-4D70-8907-B4BF54ABD007*
G04*
G04*
G04 #@! TF.FilePolarity,Positive*
G04*
G01*
G75*
%ADD10C,0.00787*%
%ADD11C,0.00591*%
%ADD12C,0.01000*%
D10*
X359252Y315177D02*
X396654D01*
Y279745D02*
Y315177D01*
X359252Y279745D02*
X396654D01*
X306103D02*
X343504D01*
X306103D02*
Y315177D01*
X343504D01*
X307480Y355118D02*
X311811D01*
X316142Y359449D01*
Y381102D01*
X307480D02*
X316142D01*
X294488Y355118D02*
X298819D01*
X290158Y359449D02*
X294488Y355118D01*
X290158Y359449D02*
Y381102D01*
X298819D01*
X333347Y327588D02*
Y402588D01*
X373346D01*
Y327588D02*
Y402588D01*
X333347Y327588D02*
X373346D01*
X404921Y298622D02*
Y325394D01*
Y298622D02*
X415551D01*
X426968D02*
X437598D01*
Y325394D01*
X410827Y331299D02*
X415551D01*
X404921Y325394D02*
X410827Y331299D01*
X431693D02*
X437598Y325394D01*
X426968Y331299D02*
X431693D01*
X476968Y359646D02*
Y386417D01*
X466339D02*
X476968D01*
X444291D02*
X454921D01*
X444291Y359646D02*
Y386417D01*
X466339Y353740D02*
X471063D01*
X476968Y359646D01*
X444291D02*
X450197Y353740D01*
X454921D01*
X444291Y298622D02*
Y325394D01*
Y298622D02*
X454921D01*
X466339D02*
X476968D01*
Y325394D01*
X450197Y331299D02*
X454921D01*
X444291Y325394D02*
X450197Y331299D01*
X471063D02*
X476968Y325394D01*
X466339Y331299D02*
X471063D01*
X437598Y359646D02*
Y386417D01*
X426968D02*
X437598D01*
X404921D02*
X415551D01*
X404921Y359646D02*
Y386417D01*
X426968Y353740D02*
X431693D01*
X437598Y359646D01*
X404921D02*
X410827Y353740D01*
X415551D01*
X385827Y340158D02*
Y341339D01*
Y344094D02*
Y344882D01*
X384252Y341339D02*
X387795D01*
X385827Y344094D02*
X387795Y341339D01*
X384252D02*
X385827Y344094D01*
X383858D02*
X387795D01*
X378740Y328346D02*
Y357480D01*
Y328346D02*
X380020D01*
X378740Y357480D02*
X383858D01*
X391634Y328346D02*
X392913D01*
X383858Y356890D02*
Y357480D01*
X378740Y356890D02*
X383858D01*
X387795D02*
X392913D01*
X387795D02*
Y357480D01*
X392913Y328346D02*
Y357480D01*
X387795D02*
X392913D01*
D11*
X319291Y362205D02*
X326378D01*
X324803Y355512D02*
X326378D01*
Y368898D01*
X324803D02*
X326378D01*
X319291D02*
X320866D01*
X319291Y355512D02*
Y368898D01*
Y355512D02*
X320866D01*
X319291Y330906D02*
X320079D01*
X319291D02*
Y344291D01*
X320079D01*
X325591Y330906D02*
X326378D01*
Y344291D01*
X325591D02*
X326378D01*
X319291Y337598D02*
X326378D01*
X306102Y331102D02*
Y338189D01*
X312795Y336614D02*
Y338189D01*
X299410D02*
X312795D01*
X299410Y336614D02*
Y338189D01*
Y331102D02*
Y332677D01*
Y331102D02*
X312795D01*
Y332677D01*
D12*
X472348Y396731D02*
X471348Y395731D01*
Y393732D01*
X472348Y392732D01*
X476347D01*
X477346Y393732D01*
Y395731D01*
X476347Y396731D01*
X474347D01*
Y394732D01*
X477346Y398730D02*
X471348D01*
X477346Y402729D01*
X471348D01*
Y404728D02*
X477346D01*
Y407727D01*
X476347Y408727D01*
X472348D01*
X471348Y407727D01*
Y404728D01*
X474347Y274622D02*
Y278621D01*
X472348Y276621D02*
X476347D01*
X477347Y280620D02*
Y282620D01*
Y281620D01*
X471348D01*
X472348Y280620D01*
X477347Y289617D02*
Y285618D01*
X473348Y289617D01*
X472348D01*
X471348Y288617D01*
Y286618D01*
X472348Y285618D01*
X471348Y291617D02*
X475347D01*
X477347Y293616D01*
X475347Y295615D01*
X471348D01*
X346789Y325046D02*
Y319048D01*
X350787D01*
X352787D02*
X354786D01*
X353786D01*
Y325046D01*
X352787Y324047D01*
X302274Y292307D02*
X298275D01*
X296276Y290308D01*
X298275Y288308D01*
X302274D01*
Y286309D02*
Y284310D01*
Y285309D01*
X296276D01*
Y286309D01*
Y284310D01*
Y281311D02*
X302274D01*
X296276Y277312D01*
X302274D01*
X301668Y406419D02*
X302667Y407418D01*
Y409418D01*
X301668Y410417D01*
X297669D01*
X296669Y409418D01*
Y407418D01*
X297669Y406419D01*
X299668D01*
Y408418D01*
X296669Y404419D02*
X302667D01*
X296669Y400421D01*
X302667D01*
Y398421D02*
X296669D01*
Y395422D01*
X297669Y394423D01*
X301668D01*
X302667Y395422D01*
Y398421D01*
X281899Y370098D02*
X280899Y371098D01*
X278900D01*
X277900Y370098D01*
Y366100D01*
X278900Y365100D01*
X280899D01*
X281899Y366100D01*
X283898Y365100D02*
X285897D01*
X284898D01*
Y371098D01*
X283898Y370098D01*
X346258Y411267D02*
X348257D01*
X347258D01*
Y405269D01*
X346258D01*
X348257D01*
X355255Y410267D02*
X354255Y411267D01*
X352256D01*
X351256Y410267D01*
Y406268D01*
X352256Y405269D01*
X354255D01*
X355255Y406268D01*
X357255Y405269D02*
X359254D01*
X358254D01*
Y411267D01*
X357255Y410267D01*
X318800Y321600D02*
Y327598D01*
X321799D01*
X322799Y326598D01*
Y324599D01*
X321799Y323599D01*
X318800D01*
X320799D02*
X322799Y321600D01*
X324798D02*
X326797D01*
X325798D01*
Y327598D01*
X324798Y326598D01*
X381800Y366898D02*
Y360900D01*
X384799D01*
X385799Y361900D01*
Y365898D01*
X384799Y366898D01*
X381800D01*
X387798Y360900D02*
X389797D01*
X388798D01*
Y366898D01*
X387798Y365898D01*
X305099Y346498D02*
X304099Y347498D01*
X302100D01*
X301100Y346498D01*
Y342500D01*
X302100Y341500D01*
X304099D01*
X305099Y342500D01*
X307098Y347498D02*
X311097D01*
Y346498D01*
X307098Y342500D01*
Y341500D01*
X459599Y285698D02*
X458599Y286698D01*
X456600D01*
X455600Y285698D01*
Y281700D01*
X456600Y280700D01*
X458599D01*
X459599Y281700D01*
X465597Y286698D02*
X463597Y285698D01*
X461598Y283699D01*
Y281700D01*
X462598Y280700D01*
X464597D01*
X465597Y281700D01*
Y282699D01*
X464597Y283699D01*
X461598D01*
X459599Y403398D02*
X458599Y404398D01*
X456600D01*
X455600Y403398D01*
Y399400D01*
X456600Y398400D01*
X458599D01*
X459599Y399400D01*
X465597Y404398D02*
X461598D01*
Y401399D01*
X463597Y402399D01*
X464597D01*
X465597Y401399D01*
Y399400D01*
X464597Y398400D01*
X462598D01*
X461598Y399400D01*
X420299Y285698D02*
X419299Y286698D01*
X417300D01*
X416300Y285698D01*
Y281700D01*
X417300Y280700D01*
X419299D01*
X420299Y281700D01*
X425297Y280700D02*
Y286698D01*
X422298Y283699D01*
X426297D01*
X420299Y403398D02*
X419299Y404398D01*
X417300D01*
X416300Y403398D01*
Y399400D01*
X417300Y398400D01*
X419299D01*
X420299Y399400D01*
X422298Y403398D02*
X423298Y404398D01*
X425297D01*
X426297Y403398D01*
Y402399D01*
X425297Y401399D01*
X424297D01*
X425297D01*
X426297Y400399D01*
Y399400D01*
X425297Y398400D01*
X423298D01*
X422298Y399400D01*
X321799Y377198D02*
X320799Y378198D01*
X318800D01*
X317800Y377198D01*
Y373200D01*
X318800Y372200D01*
X320799D01*
X321799Y373200D01*
X327797Y372200D02*
X323798D01*
X327797Y376199D01*
Y377198D01*
X326797Y378198D01*
X324798D01*
X323798Y377198D01*
M02*
