G04*
G04 #@! TF.GenerationSoftware,Altium Limited,Altium Designer,21.3.2 (30)*
G04*
G04 Layer_Color=32768*
%FSLAX25Y25*%
%MOIN*%
G70*
G04*
G04 #@! TF.SameCoordinates,64965459-EBE9-4D70-8907-B4BF54ABD007*
G04*
G04*
G04 #@! TF.FilePolarity,Positive*
G04*
G01*
G75*
%ADD36C,0.00394*%
%ADD38C,0.00197*%
D36*
X345473Y297461D02*
X357284D01*
X351378Y291556D02*
Y303366D01*
X302166Y273839D02*
Y275807D01*
Y321083D02*
X308071D01*
X302166Y275807D02*
Y321083D01*
Y273839D02*
X402559Y273839D01*
Y321083D01*
X308071D02*
X402559D01*
X303150Y366142D02*
Y370079D01*
X301181Y368110D02*
X305118D01*
X377847Y323588D02*
Y408088D01*
X328346Y323588D02*
X377847D01*
X327847Y407567D02*
X377847Y408088D01*
X327847Y407588D02*
X328346Y323588D01*
X353346Y355768D02*
Y360768D01*
X350847Y358268D02*
X355847D01*
X419291Y314961D02*
X423228D01*
X421260Y312992D02*
Y316929D01*
X458661Y370079D02*
X462598D01*
X460630Y368110D02*
Y372047D01*
X458661Y314961D02*
X462598D01*
X460630Y312992D02*
Y316929D01*
X419291Y370079D02*
X423228D01*
X421260Y368110D02*
Y372047D01*
X385827Y340551D02*
Y344488D01*
X383858Y342520D02*
X387795D01*
X322835Y360236D02*
Y364173D01*
X320866Y362205D02*
X324803D01*
X322835Y335630D02*
Y339567D01*
X320866Y337598D02*
X324803D01*
X304134Y334646D02*
X308071D01*
X306102Y332677D02*
Y336614D01*
D38*
X288976Y351181D02*
X317323D01*
X288976Y385039D02*
X317323D01*
X288976Y351181D02*
Y385039D01*
X317323Y351181D02*
Y385039D01*
X403937Y289764D02*
Y340158D01*
X438583Y289764D02*
Y340158D01*
X403937Y289764D02*
X438583D01*
X403937Y340158D02*
X438583D01*
X477953Y344882D02*
Y395276D01*
X443307Y344882D02*
Y395276D01*
X477953D01*
X443307Y344882D02*
X477953D01*
X443307Y289764D02*
Y340158D01*
X477953Y289764D02*
Y340158D01*
X443307Y289764D02*
X477953D01*
X443307Y340158D02*
X477953D01*
X438583Y344882D02*
Y395276D01*
X403937Y344882D02*
Y395276D01*
X438583D01*
X403937Y344882D02*
X438583D01*
X377559Y327953D02*
X394094D01*
X377559Y357087D02*
X394094D01*
X377559Y327953D02*
Y357087D01*
X394094Y327953D02*
Y357087D01*
X319094Y368898D02*
X326575D01*
X319094Y355512D02*
X326575D01*
Y368898D01*
X319094Y355512D02*
Y368898D01*
X319094Y330906D02*
X326575D01*
X319094Y344291D02*
X326575D01*
X319094Y330906D02*
Y344291D01*
X326575Y330906D02*
Y344291D01*
X299409Y330906D02*
Y338386D01*
X312795Y330906D02*
Y338386D01*
X299409D02*
X312795D01*
X299409Y330906D02*
X312795D01*
M02*
