G04*
G04 #@! TF.GenerationSoftware,Altium Limited,Altium Designer,21.3.2 (30)*
G04*
G04 Layer_Color=32896*
%FSLAX25Y25*%
%MOIN*%
G70*
G04*
G04 #@! TF.SameCoordinates,64965459-EBE9-4D70-8907-B4BF54ABD007*
G04*
G04*
G04 #@! TF.FilePolarity,Positive*
G04*
G01*
G75*
%ADD12C,0.01000*%
D12*
X300213Y349518D02*
Y345519D01*
X302212Y343520D01*
X304211Y345519D01*
Y349518D01*
X309210D02*
X307210D01*
X306211Y348518D01*
Y344519D01*
X307210Y343520D01*
X309210D01*
X310209Y344519D01*
Y348518D01*
X309210Y349518D01*
X312209D02*
Y344519D01*
X313208Y343520D01*
X315208D01*
X316207Y344519D01*
Y349518D01*
X318207D02*
X322205D01*
X320206D01*
Y343520D01*
X330203Y345519D02*
X334202D01*
X330203Y347518D02*
X334202D01*
X342199Y343520D02*
X344198D01*
X343199D01*
Y349518D01*
X342199Y348518D01*
X351196Y343520D02*
X347197D01*
X351196Y347518D01*
Y348518D01*
X350196Y349518D01*
X348197D01*
X347197Y348518D01*
X353196Y349518D02*
Y345519D01*
X355195Y343520D01*
X357194Y345519D01*
Y349518D01*
X368191Y345519D02*
Y346519D01*
X367191D01*
Y345519D01*
X368191D01*
X369190Y346519D01*
Y348518D01*
X368191Y349518D01*
X366191D01*
X365192Y348518D01*
Y344519D01*
X366191Y343520D01*
X369190D01*
X371190D02*
X373189D01*
X372189D01*
Y349518D01*
X371190Y348518D01*
X376188Y343520D02*
Y344519D01*
X377188D01*
Y343520D01*
X376188D01*
X385185D02*
X381186D01*
X385185Y347518D01*
Y348518D01*
X384185Y349518D01*
X382186D01*
X381186Y348518D01*
X387185Y343520D02*
Y347518D01*
X389184Y349518D01*
X391183Y347518D01*
Y343520D01*
Y346519D01*
X387185D01*
X300213Y369203D02*
Y365204D01*
X302212Y363205D01*
X304211Y365204D01*
Y369203D01*
X306211D02*
X308210D01*
X307210D01*
Y363205D01*
X306211D01*
X308210D01*
X311209D02*
Y369203D01*
X315208Y363205D01*
Y369203D01*
X329203Y365204D02*
X333202D01*
X329203Y367203D02*
X333202D01*
X344198Y363205D02*
Y369203D01*
X341199Y366204D01*
X345198D01*
X347197Y363205D02*
Y364204D01*
X348197D01*
Y363205D01*
X347197D01*
X356194Y369203D02*
X352196D01*
Y366204D01*
X354195Y367203D01*
X355195D01*
X356194Y366204D01*
Y364204D01*
X355195Y363205D01*
X353196D01*
X352196Y364204D01*
X364192Y366204D02*
X368191D01*
X380187Y369203D02*
X376188D01*
Y366204D01*
X378187Y367203D01*
X379187D01*
X380187Y366204D01*
Y364204D01*
X379187Y363205D01*
X377188D01*
X376188Y364204D01*
X382186Y363205D02*
Y364204D01*
X383186D01*
Y363205D01*
X382186D01*
X391183Y369203D02*
X387185D01*
Y366204D01*
X389184Y367203D01*
X390183D01*
X391183Y366204D01*
Y364204D01*
X390183Y363205D01*
X388184D01*
X387185Y364204D01*
X399181Y369203D02*
Y365204D01*
X401180Y363205D01*
X403179Y365204D01*
Y369203D01*
M02*
