G04*
G04 #@! TF.GenerationSoftware,Altium Limited,Altium Designer,21.3.2 (30)*
G04*
G04 Layer_Color=8388736*
%FSLAX25Y25*%
%MOIN*%
G70*
G04*
G04 #@! TF.SameCoordinates,64965459-EBE9-4D70-8907-B4BF54ABD007*
G04*
G04*
G04 #@! TF.FilePolarity,Negative*
G04*
G01*
G75*
%ADD21R,0.07099X0.13398*%
G04:AMPARAMS|DCode=22|XSize=55.24mil|YSize=137.92mil|CornerRadius=15.81mil|HoleSize=0mil|Usage=FLASHONLY|Rotation=0.000|XOffset=0mil|YOffset=0mil|HoleType=Round|Shape=RoundedRectangle|*
%AMROUNDEDRECTD22*
21,1,0.05524,0.10630,0,0,0.0*
21,1,0.02362,0.13792,0,0,0.0*
1,1,0.03162,0.01181,-0.05315*
1,1,0.03162,-0.01181,-0.05315*
1,1,0.03162,-0.01181,0.05315*
1,1,0.03162,0.01181,0.05315*
%
%ADD22ROUNDEDRECTD22*%
G04:AMPARAMS|DCode=23|XSize=330.84mil|YSize=401.7mil|CornerRadius=84.71mil|HoleSize=0mil|Usage=FLASHONLY|Rotation=0.000|XOffset=0mil|YOffset=0mil|HoleType=Round|Shape=RoundedRectangle|*
%AMROUNDEDRECTD23*
21,1,0.33084,0.23228,0,0,0.0*
21,1,0.16142,0.40170,0,0,0.0*
1,1,0.16942,0.08071,-0.11614*
1,1,0.16942,-0.08071,-0.11614*
1,1,0.16942,-0.08071,0.11614*
1,1,0.16942,0.08071,0.11614*
%
%ADD23ROUNDEDRECTD23*%
%ADD24R,0.09855X0.18713*%
%ADD25R,0.09265X0.10446*%
%ADD26R,0.06312X0.05918*%
%ADD27R,0.06115X0.05328*%
%ADD28R,0.05918X0.06312*%
%ADD29C,0.12611*%
G04:AMPARAMS|DCode=30|XSize=165.48mil|YSize=165.48mil|CornerRadius=43.37mil|HoleSize=0mil|Usage=FLASHONLY|Rotation=0.000|XOffset=0mil|YOffset=0mil|HoleType=Round|Shape=RoundedRectangle|*
%AMROUNDEDRECTD30*
21,1,0.16548,0.07874,0,0,0.0*
21,1,0.07874,0.16548,0,0,0.0*
1,1,0.08674,0.03937,-0.03937*
1,1,0.08674,-0.03937,-0.03937*
1,1,0.08674,-0.03937,0.03937*
1,1,0.08674,0.03937,0.03937*
%
%ADD30ROUNDEDRECTD30*%
%ADD31R,0.00800X0.00800*%
D21*
X303150Y358268D02*
D03*
Y377953D02*
D03*
D22*
X339846Y335088D02*
D03*
X346597D02*
D03*
X353346Y334947D02*
D03*
X360097Y335088D02*
D03*
X366846D02*
D03*
D23*
X353346Y381588D02*
D03*
D24*
X421260Y300000D02*
D03*
Y329921D02*
D03*
X460630Y385039D02*
D03*
Y355118D02*
D03*
Y300000D02*
D03*
Y329921D02*
D03*
X421260Y385039D02*
D03*
Y355118D02*
D03*
D25*
X385827Y334055D02*
D03*
Y350984D02*
D03*
D26*
X322835Y365354D02*
D03*
Y359055D02*
D03*
D27*
Y334154D02*
D03*
Y341043D02*
D03*
D28*
X302953Y334646D02*
D03*
X309252D02*
D03*
D29*
X351378Y282913D02*
D03*
Y312008D02*
D03*
D30*
X486221Y283465D02*
D03*
Y401575D02*
D03*
X287402D02*
D03*
Y283465D02*
D03*
D31*
X486221Y381890D02*
D03*
Y314961D02*
D03*
X281496Y381890D02*
D03*
Y314961D02*
D03*
M02*
