M48
;Layer_Color=9474304
;FILE_FORMAT=2:5
INCH,LZ
;TYPE=PLATED
T1F00S00C0.01181
T2F00S00C0.04724
T3F00S00C0.08661
%
T01
X0318898Y0283465
X0330709
X0324803Y0295275
X0312992
X0395669
X040748
X0413386Y0307086
X0401575
Y0283465
X0413386
X0425197
X0437008
X0448819
X046063
X0442913Y0295275
X0431102
X0437008Y0307086
X0448819
X0307086Y0283465
X0301181Y034252
X0283465Y0354331
Y0330709
X0295275Y0377953
X0301181Y0389764
X028937
X0307086Y0401575
X0318898
X0330709
X0324803Y0389764
X0312992
X0318898Y0377953
X0330709
Y0354331
X0318898
X0312992Y034252
X0330709Y0330709
X0395669Y0318898
Y0366142
X0383858
X0372047
X0377953Y0377953
X0389764
X0401575
X0413386
X040748Y0389764
X0395669
X0383858
X0372047
X0377953Y0401575
X0389764
X0401575
X0413386
X0425197
X0437008
X0448819
X046063
X0442913Y0389764
X0431102
X0437008Y0377953
X0448819
X0472441
X0478346Y0389764
X0490157
Y0366142
X0484252Y0354331
X0490157Y034252
X0484252Y0330709
X0472441Y0401575
T02
X0351378Y0282913
Y0312008
T03
X0281496Y0314961
Y038189
X0486221
Y0314961
M30
