G04*
G04 #@! TF.GenerationSoftware,Altium Limited,Altium Designer,21.3.2 (30)*
G04*
G04 Layer_Color=8388736*
%FSLAX25Y25*%
%MOIN*%
G70*
G04*
G04 #@! TF.SameCoordinates,97264966-10FB-41C2-9D5A-9FAD70EEB638*
G04*
G04*
G04 #@! TF.FilePolarity,Negative*
G04*
G01*
G75*
G04:AMPARAMS|DCode=17|XSize=55.24mil|YSize=137.92mil|CornerRadius=15.81mil|HoleSize=0mil|Usage=FLASHONLY|Rotation=0.000|XOffset=0mil|YOffset=0mil|HoleType=Round|Shape=RoundedRectangle|*
%AMROUNDEDRECTD17*
21,1,0.05524,0.10630,0,0,0.0*
21,1,0.02362,0.13792,0,0,0.0*
1,1,0.03162,0.01181,-0.05315*
1,1,0.03162,-0.01181,-0.05315*
1,1,0.03162,-0.01181,0.05315*
1,1,0.03162,0.01181,0.05315*
%
%ADD17ROUNDEDRECTD17*%
G04:AMPARAMS|DCode=18|XSize=330.84mil|YSize=401.7mil|CornerRadius=84.71mil|HoleSize=0mil|Usage=FLASHONLY|Rotation=0.000|XOffset=0mil|YOffset=0mil|HoleType=Round|Shape=RoundedRectangle|*
%AMROUNDEDRECTD18*
21,1,0.33084,0.23228,0,0,0.0*
21,1,0.16142,0.40170,0,0,0.0*
1,1,0.16942,0.08071,-0.11614*
1,1,0.16942,-0.08071,-0.11614*
1,1,0.16942,-0.08071,0.11614*
1,1,0.16942,0.08071,0.11614*
%
%ADD18ROUNDEDRECTD18*%
%ADD19R,0.06115X0.05328*%
%ADD20R,0.10642X0.07493*%
%ADD21R,0.12217X0.22060*%
G04:AMPARAMS|DCode=22|XSize=8mil|YSize=8mil|CornerRadius=0mil|HoleSize=0mil|Usage=FLASHONLY|Rotation=0.000|XOffset=0mil|YOffset=0mil|HoleType=Round|Shape=RoundedRectangle|*
%AMROUNDEDRECTD22*
21,1,0.00800,0.00800,0,0,0.0*
21,1,0.00800,0.00800,0,0,0.0*
1,1,0.00000,0.00400,-0.00400*
1,1,0.00000,-0.00400,-0.00400*
1,1,0.00000,-0.00400,0.00400*
1,1,0.00000,0.00400,0.00400*
%
%ADD22ROUNDEDRECTD22*%
G04:AMPARAMS|DCode=23|XSize=165.48mil|YSize=165.48mil|CornerRadius=43.37mil|HoleSize=0mil|Usage=FLASHONLY|Rotation=0.000|XOffset=0mil|YOffset=0mil|HoleType=Round|Shape=RoundedRectangle|*
%AMROUNDEDRECTD23*
21,1,0.16548,0.07874,0,0,0.0*
21,1,0.07874,0.16548,0,0,0.0*
1,1,0.08674,0.03937,-0.03937*
1,1,0.08674,-0.03937,-0.03937*
1,1,0.08674,-0.03937,0.03937*
1,1,0.08674,0.03937,0.03937*
%
%ADD23ROUNDEDRECTD23*%
%ADD24O,0.08477X0.05918*%
%ADD25O,0.09068X0.06312*%
D17*
X424500Y292320D02*
D03*
X431250D02*
D03*
X438000Y292179D02*
D03*
X444750Y292320D02*
D03*
X451500D02*
D03*
D18*
X438000Y338821D02*
D03*
D19*
X476378Y357776D02*
D03*
Y350886D02*
D03*
Y338090D02*
D03*
Y331201D02*
D03*
D20*
X446850Y269685D02*
D03*
X431102D02*
D03*
D21*
X513594Y291000D02*
D03*
X475406D02*
D03*
D22*
X539370Y370079D02*
D03*
Y263779D02*
D03*
X377953Y370079D02*
D03*
Y263779D02*
D03*
D23*
X393701Y350394D02*
D03*
Y279528D02*
D03*
X535433D02*
D03*
Y350394D02*
D03*
D24*
X505500Y349500D02*
D03*
Y339657D02*
D03*
D25*
X391339Y311614D02*
D03*
Y325394D02*
D03*
M02*
