G04*
G04 #@! TF.GenerationSoftware,Altium Limited,Altium Designer,21.3.2 (30)*
G04*
G04 Layer_Physical_Order=1*
G04 Layer_Color=255*
%FSLAX25Y25*%
%MOIN*%
G70*
G04*
G04 #@! TF.SameCoordinates,97264966-10FB-41C2-9D5A-9FAD70EEB638*
G04*
G04*
G04 #@! TF.FilePolarity,Positive*
G04*
G01*
G75*
G04:AMPARAMS|DCode=12|XSize=47.24mil|YSize=129.92mil|CornerRadius=11.81mil|HoleSize=0mil|Usage=FLASHONLY|Rotation=0.000|XOffset=0mil|YOffset=0mil|HoleType=Round|Shape=RoundedRectangle|*
%AMROUNDEDRECTD12*
21,1,0.04724,0.10630,0,0,0.0*
21,1,0.02362,0.12992,0,0,0.0*
1,1,0.02362,0.01181,-0.05315*
1,1,0.02362,-0.01181,-0.05315*
1,1,0.02362,-0.01181,0.05315*
1,1,0.02362,0.01181,0.05315*
%
%ADD12ROUNDEDRECTD12*%
G04:AMPARAMS|DCode=13|XSize=322.84mil|YSize=393.7mil|CornerRadius=80.71mil|HoleSize=0mil|Usage=FLASHONLY|Rotation=0.000|XOffset=0mil|YOffset=0mil|HoleType=Round|Shape=RoundedRectangle|*
%AMROUNDEDRECTD13*
21,1,0.32284,0.23228,0,0,0.0*
21,1,0.16142,0.39370,0,0,0.0*
1,1,0.16142,0.08071,-0.11614*
1,1,0.16142,-0.08071,-0.11614*
1,1,0.16142,-0.08071,0.11614*
1,1,0.16142,0.08071,0.11614*
%
%ADD13ROUNDEDRECTD13*%
%ADD14R,0.05315X0.04528*%
%ADD15R,0.09843X0.06693*%
%ADD16R,0.11417X0.21260*%
%ADD26C,0.04724*%
G04:AMPARAMS|DCode=27|XSize=157.48mil|YSize=157.48mil|CornerRadius=39.37mil|HoleSize=0mil|Usage=FLASHONLY|Rotation=0.000|XOffset=0mil|YOffset=0mil|HoleType=Round|Shape=RoundedRectangle|*
%AMROUNDEDRECTD27*
21,1,0.15748,0.07874,0,0,0.0*
21,1,0.07874,0.15748,0,0,0.0*
1,1,0.07874,0.03937,-0.03937*
1,1,0.07874,-0.03937,-0.03937*
1,1,0.07874,-0.03937,0.03937*
1,1,0.07874,0.03937,0.03937*
%
%ADD27ROUNDEDRECTD27*%
%ADD28O,0.07677X0.05118*%
%ADD29O,0.08268X0.05512*%
%ADD30C,0.02756*%
G36*
X546433Y256730D02*
X546424Y256726D01*
X370890D01*
Y377142D01*
X546433Y377142D01*
Y256730D01*
D02*
G37*
%LPC*%
G36*
X540019Y375008D02*
X538721D01*
X537467Y374672D01*
X536343Y374023D01*
X535426Y373105D01*
X534777Y371981D01*
X534441Y370728D01*
Y369430D01*
X534777Y368176D01*
X535426Y367052D01*
X536343Y366135D01*
X537467Y365486D01*
X538721Y365150D01*
X540019D01*
X541273Y365486D01*
X542397Y366135D01*
X543314Y367052D01*
X543963Y368176D01*
X544299Y369430D01*
Y370728D01*
X543963Y371981D01*
X543314Y373105D01*
X542397Y374023D01*
X541273Y374672D01*
X540019Y375008D01*
D02*
G37*
G36*
X378602D02*
X377304D01*
X376050Y374672D01*
X374926Y374023D01*
X374008Y373105D01*
X373359Y371981D01*
X373024Y370728D01*
Y369430D01*
X373359Y368176D01*
X374008Y367052D01*
X374926Y366135D01*
X376050Y365486D01*
X377304Y365150D01*
X378602D01*
X379855Y365486D01*
X380979Y366135D01*
X381897Y367052D01*
X382546Y368176D01*
X382882Y369430D01*
Y370728D01*
X382546Y371981D01*
X381897Y373105D01*
X380979Y374023D01*
X379855Y374672D01*
X378602Y375008D01*
D02*
G37*
G36*
X479823Y360827D02*
X477362D01*
Y358760D01*
X479823D01*
Y360827D01*
D02*
G37*
G36*
X475394D02*
X472933D01*
Y358760D01*
X475394D01*
Y360827D01*
D02*
G37*
G36*
X479823Y356791D02*
X477362D01*
Y354724D01*
X479823D01*
Y356791D01*
D02*
G37*
G36*
X475394D02*
X472933D01*
Y354724D01*
X475394D01*
Y356791D01*
D02*
G37*
G36*
X476378Y353872D02*
X475605Y353770D01*
X475551Y353748D01*
X473122D01*
Y348024D01*
X473392D01*
Y340978D01*
X468996D01*
X468223Y340877D01*
X467503Y340578D01*
X466885Y340104D01*
X462258Y335478D01*
X461784Y334859D01*
X461486Y334139D01*
X461384Y333366D01*
Y316591D01*
X457424Y312632D01*
X447518D01*
X447517Y312632D01*
X446745Y312530D01*
X446024Y312232D01*
X445406Y311757D01*
X442638Y308990D01*
X442164Y308371D01*
X441866Y307651D01*
X441764Y306878D01*
Y297682D01*
X441754Y297635D01*
Y287005D01*
X441893Y286311D01*
X442286Y285723D01*
X442875Y285329D01*
X443569Y285191D01*
X445931D01*
X446625Y285329D01*
X447214Y285723D01*
X447607Y286311D01*
X447746Y287005D01*
Y297635D01*
X447736Y297682D01*
Y305641D01*
X448754Y306660D01*
X458661D01*
X459434Y306761D01*
X460154Y307060D01*
X460773Y307534D01*
X466482Y313243D01*
X466956Y313861D01*
X467254Y314581D01*
X467356Y315354D01*
Y332129D01*
X470233Y335006D01*
X476279D01*
X477052Y335108D01*
X477344Y335228D01*
X479634D01*
Y340953D01*
X479364D01*
Y348024D01*
X479634D01*
Y353748D01*
X477205D01*
X477151Y353770D01*
X476378Y353872D01*
D02*
G37*
G36*
X413386Y319545D02*
X375984D01*
X375526Y319356D01*
X375337Y318898D01*
Y279391D01*
X375421Y279187D01*
X375488Y278975D01*
X385940Y266513D01*
X385967Y266499D01*
X385978Y266471D01*
X386183Y266386D01*
X386380Y266284D01*
X386408Y266293D01*
X386436Y266281D01*
X407480Y266281D01*
X407938Y266471D01*
X408128Y266929D01*
Y282330D01*
X408268Y282423D01*
X422596D01*
X422770Y281954D01*
X422581Y281496D01*
Y261811D01*
X422770Y261353D01*
X423228Y261163D01*
X438976D01*
X439434Y261353D01*
X439624Y261811D01*
Y276911D01*
X486221D01*
X486679Y277101D01*
X486868Y277559D01*
Y303150D01*
X486679Y303608D01*
X486221Y303797D01*
X464567D01*
X464109Y303608D01*
X463919Y303150D01*
Y284112D01*
X434801D01*
Y301181D01*
X434612Y301639D01*
X434154Y301829D01*
X428445D01*
X428313Y301774D01*
X427813Y302108D01*
Y303150D01*
X427623Y303608D01*
X427165Y303797D01*
X414034D01*
Y318898D01*
X413844Y319356D01*
X413386Y319545D01*
D02*
G37*
G36*
X522146Y344841D02*
X495571D01*
X495113Y344651D01*
X494923Y344193D01*
Y334211D01*
X473524D01*
X473167Y334063D01*
X473122D01*
Y334044D01*
X473066Y334021D01*
X472876Y333563D01*
Y316732D01*
X473066Y316274D01*
X473361Y315979D01*
X473819Y315789D01*
X491478D01*
Y271260D01*
X491668Y270802D01*
X493932Y268538D01*
X494390Y268348D01*
X494848Y268538D01*
X494855Y268545D01*
X536766D01*
X536900Y268045D01*
X536343Y267724D01*
X535426Y266806D01*
X534777Y265682D01*
X534441Y264428D01*
Y263131D01*
X534777Y261877D01*
X535426Y260753D01*
X536343Y259835D01*
X537467Y259186D01*
X538721Y258850D01*
X540019D01*
X541273Y259186D01*
X542397Y259835D01*
X543314Y260753D01*
X543963Y261877D01*
X544299Y263131D01*
Y264428D01*
X543963Y265682D01*
X543314Y266806D01*
X542397Y267724D01*
X541840Y268045D01*
X541974Y268545D01*
X544783D01*
X545241Y268735D01*
X545431Y269193D01*
Y321555D01*
X545241Y322013D01*
X522604Y344651D01*
X522146Y344841D01*
D02*
G37*
G36*
X378602Y268709D02*
X377304D01*
X376050Y268373D01*
X374926Y267724D01*
X374008Y266806D01*
X373359Y265682D01*
X373024Y264428D01*
Y263131D01*
X373359Y261877D01*
X374008Y260753D01*
X374926Y259835D01*
X376050Y259186D01*
X377304Y258850D01*
X378602D01*
X379855Y259186D01*
X380979Y259835D01*
X381897Y260753D01*
X382546Y261877D01*
X382882Y263131D01*
Y264428D01*
X382546Y265682D01*
X381897Y266806D01*
X380979Y267724D01*
X379855Y268373D01*
X378602Y268709D01*
D02*
G37*
%LPD*%
G36*
X486221Y277559D02*
X438976D01*
Y261811D01*
X423228D01*
Y281496D01*
X428445D01*
Y301181D01*
X434154D01*
Y283465D01*
X464567D01*
Y303150D01*
X486221D01*
Y277559D01*
D02*
G37*
G36*
X413386Y303150D02*
X427165D01*
Y283071D01*
X408268D01*
X407480Y283858D01*
Y266929D01*
X386436Y266929D01*
X375984Y279391D01*
Y318898D01*
X413386D01*
Y303150D01*
D02*
G37*
G36*
X544783Y321555D02*
Y269193D01*
X494587D01*
X494390Y268996D01*
X492126Y271260D01*
Y316437D01*
X473819D01*
X473524Y316732D01*
Y333563D01*
X495571D01*
Y344193D01*
X522146D01*
X544783Y321555D01*
D02*
G37*
D12*
X424500Y292320D02*
D03*
X431250D02*
D03*
X438000Y292179D02*
D03*
X444750Y292320D02*
D03*
X451500D02*
D03*
D13*
X438000Y338821D02*
D03*
D14*
X476378Y357776D02*
D03*
Y350886D02*
D03*
Y338090D02*
D03*
Y331201D02*
D03*
D15*
X446850Y269685D02*
D03*
X431102D02*
D03*
D16*
X513594Y291000D02*
D03*
X475406D02*
D03*
D26*
X444750Y292320D02*
Y306878D01*
X447517Y309646D02*
X458661D01*
X444750Y306878D02*
X447517Y309646D01*
X458661D02*
X464370Y315354D01*
Y333366D01*
X468996Y337992D01*
X476279D02*
X476378Y338090D01*
X468996Y337992D02*
X476279D01*
X476378Y338090D02*
Y350886D01*
D27*
X393701Y350394D02*
D03*
Y279528D02*
D03*
X535433D02*
D03*
Y350394D02*
D03*
D28*
X505500Y349500D02*
D03*
Y339657D02*
D03*
D29*
X391339Y311614D02*
D03*
Y325394D02*
D03*
D30*
X389764Y330709D02*
D03*
Y259842D02*
D03*
X377953Y354331D02*
D03*
Y330709D02*
D03*
X425197Y307086D02*
D03*
X454724Y271654D02*
D03*
X407480Y366142D02*
D03*
X401575Y259842D02*
D03*
X407480Y342520D02*
D03*
X419291Y271654D02*
D03*
X437008Y307086D02*
D03*
X419291Y366142D02*
D03*
Y342520D02*
D03*
X442913Y366142D02*
D03*
X413386Y259842D02*
D03*
X383858Y366142D02*
D03*
X413386Y354331D02*
D03*
X419291Y318898D02*
D03*
X466535Y271654D02*
D03*
X460630Y259842D02*
D03*
X454724Y318898D02*
D03*
X431102Y366142D02*
D03*
X413386Y330709D02*
D03*
X448819Y259842D02*
D03*
X395669Y366142D02*
D03*
X401575Y330709D02*
D03*
X383858Y342520D02*
D03*
X454724Y366142D02*
D03*
X513779D02*
D03*
X519685Y354331D02*
D03*
X484252D02*
D03*
X490157Y342520D02*
D03*
X484252Y307086D02*
D03*
X478346Y366142D02*
D03*
X507874Y259842D02*
D03*
X496063D02*
D03*
X490157Y366142D02*
D03*
X501968D02*
D03*
X519685Y259842D02*
D03*
X496063Y354331D02*
D03*
X507874D02*
D03*
X472441Y259842D02*
D03*
X466535Y342520D02*
D03*
X478346Y271654D02*
D03*
X460630Y354331D02*
D03*
X525590Y366142D02*
D03*
X472441Y307086D02*
D03*
X484252Y259842D02*
D03*
X466535Y366142D02*
D03*
X531496Y259842D02*
D03*
M02*
