G04*
G04 #@! TF.GenerationSoftware,Altium Limited,Altium Designer,21.3.2 (30)*
G04*
G04 Layer_Physical_Order=2*
G04 Layer_Color=16711680*
%FSLAX25Y25*%
%MOIN*%
G70*
G04*
G04 #@! TF.SameCoordinates,97264966-10FB-41C2-9D5A-9FAD70EEB638*
G04*
G04*
G04 #@! TF.FilePolarity,Positive*
G04*
G01*
G75*
G04:AMPARAMS|DCode=27|XSize=157.48mil|YSize=157.48mil|CornerRadius=39.37mil|HoleSize=0mil|Usage=FLASHONLY|Rotation=0.000|XOffset=0mil|YOffset=0mil|HoleType=Round|Shape=RoundedRectangle|*
%AMROUNDEDRECTD27*
21,1,0.15748,0.07874,0,0,0.0*
21,1,0.07874,0.15748,0,0,0.0*
1,1,0.07874,0.03937,-0.03937*
1,1,0.07874,-0.03937,-0.03937*
1,1,0.07874,-0.03937,0.03937*
1,1,0.07874,0.03937,0.03937*
%
%ADD27ROUNDEDRECTD27*%
%ADD28O,0.07677X0.05118*%
%ADD29O,0.08268X0.05512*%
%ADD30C,0.02756*%
G36*
X546433Y256730D02*
X546424Y256726D01*
X370890D01*
Y377142D01*
X546433Y377142D01*
Y256730D01*
D02*
G37*
%LPC*%
G36*
X540019Y375008D02*
X538721D01*
X537467Y374672D01*
X536343Y374023D01*
X535426Y373105D01*
X534777Y371981D01*
X534441Y370728D01*
Y369430D01*
X534777Y368176D01*
X535426Y367052D01*
X536343Y366135D01*
X537467Y365486D01*
X538721Y365150D01*
X540019D01*
X541273Y365486D01*
X542397Y366135D01*
X543314Y367052D01*
X543963Y368176D01*
X544299Y369430D01*
Y370728D01*
X543963Y371981D01*
X543314Y373105D01*
X542397Y374023D01*
X541273Y374672D01*
X540019Y375008D01*
D02*
G37*
G36*
X378602D02*
X377304D01*
X376050Y374672D01*
X374926Y374023D01*
X374008Y373105D01*
X373359Y371981D01*
X373024Y370728D01*
Y369430D01*
X373359Y368176D01*
X374008Y367052D01*
X374926Y366135D01*
X376050Y365486D01*
X377304Y365150D01*
X378602D01*
X379855Y365486D01*
X380979Y366135D01*
X381897Y367052D01*
X382546Y368176D01*
X382882Y369430D01*
Y370728D01*
X382546Y371981D01*
X381897Y373105D01*
X380979Y374023D01*
X379855Y374672D01*
X378602Y375008D01*
D02*
G37*
G36*
X506779Y342842D02*
X504220D01*
X503396Y342734D01*
X502628Y342416D01*
X501968Y341909D01*
X501462Y341250D01*
X501144Y340482D01*
X501036Y339657D01*
X501144Y338833D01*
X501462Y338065D01*
X501968Y337406D01*
X502628Y336899D01*
X503396Y336581D01*
X504220Y336473D01*
X506779D01*
X507604Y336581D01*
X508372Y336899D01*
X509031Y337406D01*
X509538Y338065D01*
X509856Y338833D01*
X509964Y339657D01*
X509856Y340482D01*
X509538Y341250D01*
X509031Y341909D01*
X508372Y342416D01*
X507604Y342734D01*
X506779Y342842D01*
D02*
G37*
G36*
X392717Y314998D02*
X389961D01*
X389085Y314882D01*
X388269Y314544D01*
X387568Y314006D01*
X387031Y313306D01*
X386693Y312490D01*
X386577Y311614D01*
X386693Y310738D01*
X387031Y309923D01*
X387568Y309222D01*
X388269Y308684D01*
X389085Y308346D01*
X389961Y308231D01*
X392717D01*
X393592Y308346D01*
X394408Y308684D01*
X395109Y309222D01*
X395647Y309923D01*
X395985Y310738D01*
X396100Y311614D01*
X395985Y312490D01*
X395647Y313306D01*
X395109Y314006D01*
X394408Y314544D01*
X393592Y314882D01*
X392717Y314998D01*
D02*
G37*
G36*
X539370Y288039D02*
X531496D01*
X530312Y287883D01*
X529209Y287426D01*
X528261Y286699D01*
X527534Y285752D01*
X527077Y284649D01*
X526922Y283465D01*
Y275590D01*
X527077Y274407D01*
X527534Y273303D01*
X528261Y272356D01*
X529209Y271629D01*
X530312Y271172D01*
X531496Y271016D01*
X539370D01*
X540554Y271172D01*
X541657Y271629D01*
X542605Y272356D01*
X543332Y273303D01*
X543789Y274407D01*
X543945Y275590D01*
Y283465D01*
X543789Y284649D01*
X543332Y285752D01*
X542605Y286699D01*
X541657Y287426D01*
X540554Y287883D01*
X539370Y288039D01*
D02*
G37*
G36*
X397638D02*
X389764D01*
X388580Y287883D01*
X387476Y287426D01*
X386529Y286699D01*
X385802Y285752D01*
X385345Y284649D01*
X385189Y283465D01*
Y275590D01*
X385345Y274407D01*
X385802Y273303D01*
X386529Y272356D01*
X387476Y271629D01*
X388580Y271172D01*
X389764Y271016D01*
X397638D01*
X398822Y271172D01*
X399925Y271629D01*
X400873Y272356D01*
X401600Y273303D01*
X402057Y274407D01*
X402212Y275590D01*
Y283465D01*
X402057Y284649D01*
X401600Y285752D01*
X400873Y286699D01*
X399925Y287426D01*
X398822Y287883D01*
X397638Y288039D01*
D02*
G37*
G36*
X540019Y268709D02*
X538721D01*
X537467Y268373D01*
X536343Y267724D01*
X535426Y266806D01*
X534777Y265682D01*
X534441Y264428D01*
Y263131D01*
X534777Y261877D01*
X535426Y260753D01*
X536343Y259835D01*
X537467Y259186D01*
X538721Y258850D01*
X540019D01*
X541273Y259186D01*
X542397Y259835D01*
X543314Y260753D01*
X543963Y261877D01*
X544299Y263131D01*
Y264428D01*
X543963Y265682D01*
X543314Y266806D01*
X542397Y267724D01*
X541273Y268373D01*
X540019Y268709D01*
D02*
G37*
G36*
X378602D02*
X377304D01*
X376050Y268373D01*
X374926Y267724D01*
X374008Y266806D01*
X373359Y265682D01*
X373024Y264428D01*
Y263131D01*
X373359Y261877D01*
X374008Y260753D01*
X374926Y259835D01*
X376050Y259186D01*
X377304Y258850D01*
X378602D01*
X379855Y259186D01*
X380979Y259835D01*
X381897Y260753D01*
X382546Y261877D01*
X382882Y263131D01*
Y264428D01*
X382546Y265682D01*
X381897Y266806D01*
X380979Y267724D01*
X379855Y268373D01*
X378602Y268709D01*
D02*
G37*
%LPD*%
D27*
X393701Y350394D02*
D03*
Y279528D02*
D03*
X535433D02*
D03*
Y350394D02*
D03*
D28*
X505500Y349500D02*
D03*
Y339657D02*
D03*
D29*
X391339Y311614D02*
D03*
Y325394D02*
D03*
D30*
X389764Y330709D02*
D03*
Y259842D02*
D03*
X377953Y354331D02*
D03*
Y330709D02*
D03*
X425197Y307086D02*
D03*
X454724Y271654D02*
D03*
X407480Y366142D02*
D03*
X401575Y259842D02*
D03*
X407480Y342520D02*
D03*
X419291Y271654D02*
D03*
X437008Y307086D02*
D03*
X419291Y366142D02*
D03*
Y342520D02*
D03*
X442913Y366142D02*
D03*
X413386Y259842D02*
D03*
X383858Y366142D02*
D03*
X413386Y354331D02*
D03*
X419291Y318898D02*
D03*
X466535Y271654D02*
D03*
X460630Y259842D02*
D03*
X454724Y318898D02*
D03*
X431102Y366142D02*
D03*
X413386Y330709D02*
D03*
X448819Y259842D02*
D03*
X395669Y366142D02*
D03*
X401575Y330709D02*
D03*
X383858Y342520D02*
D03*
X454724Y366142D02*
D03*
X513779D02*
D03*
X519685Y354331D02*
D03*
X484252D02*
D03*
X490157Y342520D02*
D03*
X484252Y307086D02*
D03*
X478346Y366142D02*
D03*
X507874Y259842D02*
D03*
X496063D02*
D03*
X490157Y366142D02*
D03*
X501968D02*
D03*
X519685Y259842D02*
D03*
X496063Y354331D02*
D03*
X507874D02*
D03*
X472441Y259842D02*
D03*
X466535Y342520D02*
D03*
X478346Y271654D02*
D03*
X460630Y354331D02*
D03*
X525590Y366142D02*
D03*
X472441Y307086D02*
D03*
X484252Y259842D02*
D03*
X466535Y366142D02*
D03*
X531496Y259842D02*
D03*
M02*
