M48
;Layer_Color=9474304
;FILE_FORMAT=2:5
INCH,TZ
;TYPE=PLATED
T1F00S00C0.01181
T2F00S00C0.02756
T3F00S00C0.03150
T4F00S00C0.07874
T5F00S00C0.08661
%
T01
X472441Y259842
X484252
X496063
X507874
X519685
X531496
X478346Y271654
X484252Y307086
X472441
X437008
X425197
X419291Y271654
X413386Y259842
X401575
X389764
X448819
X460630
X454724Y271654
X466535
X454724Y318898
X419291
X413386Y330709
X401575
X389764
X377953
X383858Y342520
X377953Y354331
X383858Y366142
X395669
X407480
X419291
X431102
X442913
X454724
X466535
X460630Y354331
X466535Y342520
X419291
X407480
X413386Y354331
X484252
X496063
X507874
X519685
X513779Y366142
X501968
X490157
X478346
X490157Y342520
X525590Y366142
T02
X505500Y339657
Y349500
T03
X391339Y311614
Y325394
T04
X535433Y279528
X393701
Y350394
X535433
T05
X539370Y263779
X377953
Y370079
X539370
M30
